inDegrees=no
num_controls=7
num_derivatives=13
num_iterations=79
num_multipliers=7
num_parameters=0
num_slacks=7
num_states=26
objective=0.455591
objective_accelerations=0.043969
objective_balance=0.000806
objective_effort=0.035654
objective_height=0.369052
objective_ligament=0.006109
solver_duration=960.429912
status=Solve_Succeeded
success=true
DataType=double
version=3
OpenSimVersion=4.5
endheader
time	/jointset/ground_pelvis/pelvis_tilt/value	/jointset/ground_pelvis/pelvis_tx/value	/jointset/ground_pelvis/pelvis_ty/value	/jointset/hip_r/hip_flexion_r/value	/jointset/hip_r/hip_adduction_r/value	/jointset/hip_r/hip_rotation_r/value	/jointset/back/lumbar_extension/value	/jointset/patellofemoral_r/patellar_flexion_r/value	/jointset/knee_r/knee_flexion_r/value	/jointset/knee_r/knee_adduction_r/value	/jointset/knee_r/knee_rotation_r/value	/jointset/ankle_r/ankle_angle_r/value	/jointset/subtalar_r/subtalar_angle_r/value	/jointset/ground_pelvis/pelvis_tilt/speed	/jointset/ground_pelvis/pelvis_tx/speed	/jointset/ground_pelvis/pelvis_ty/speed	/jointset/hip_r/hip_flexion_r/speed	/jointset/hip_r/hip_adduction_r/speed	/jointset/hip_r/hip_rotation_r/speed	/jointset/back/lumbar_extension/speed	/jointset/patellofemoral_r/patellar_flexion_r/speed	/jointset/knee_r/knee_flexion_r/speed	/jointset/knee_r/knee_adduction_r/speed	/jointset/knee_r/knee_rotation_r/speed	/jointset/ankle_r/ankle_angle_r/speed	/jointset/subtalar_r/subtalar_angle_r/speed	/forceset/tau_hip_flexion_r	/forceset/tau_hip_adduction_r	/forceset/tau_hip_rotation_r	/forceset/tau_knee_flexion_r	/forceset/tau_ankle_angle_r	/forceset/tau_subtalar_angle_r	/forceset/tau_lumbar_extension	lambda_cid13_p0	lambda_cid14_p0	lambda_cid14_p1	lambda_cid14_p2	lambda_cid14_p3	lambda_cid14_p4	lambda_cid14_p5	/jointset/ground_pelvis/pelvis_tilt/accel	/jointset/ground_pelvis/pelvis_tx/accel	/jointset/ground_pelvis/pelvis_ty/accel	/jointset/hip_r/hip_flexion_r/accel	/jointset/hip_r/hip_adduction_r/accel	/jointset/hip_r/hip_rotation_r/accel	/jointset/back/lumbar_extension/accel	/jointset/patellofemoral_r/patellar_flexion_r/accel	/jointset/knee_r/knee_flexion_r/accel	/jointset/knee_r/knee_adduction_r/accel	/jointset/knee_r/knee_rotation_r/accel	/jointset/ankle_r/ankle_angle_r/accel	/jointset/subtalar_r/subtalar_angle_r/accel	gamma_cid13_p0	gamma_cid14_p0	gamma_cid14_p1	gamma_cid14_p2	gamma_cid14_p3	gamma_cid14_p4	gamma_cid14_p5
0	-0.006736084995887339	0.1314774609707811	0.9333720466385831	0.1934211968871041	-0.2283224829328854	-0.2400485153133119	-0.2903787966825928	0.2311786273363418	0.2311786273363406	0.1329083677384142	0.1718563487292218	0.089344008118978	0.06367251657926801	0	0	0	0	0	0	0	0	0	0	0	0	0	0.09046010921227737	-0.03321795772000168	0.004595064392455632	-0.2168915259449135	0.0885949662084396	-0.09851389773519079	-0.0153188031689325	-29.89200005798691	-18.44107816322645	-40.75049382802696	0.9070751130633803	9.212070008024233	-610.703992929191	28.57444797711895	-1.41600612381413	-1.825622260541362	-0.8015842862233856	9.150939134805705	-0.321865128529073	2.438466191505973	-6.133756649089912	9.794146849661034	9.794146849658111	-1.823446228305763	0.3218846726397559	2.549273440304844	0.307007321027734	3.664206073988391e-08	3.034636254131343e-08	-2.850153826469612e-07	1.635326738767667e-07	-1.281516432334034e-09	1.781959287842987e-07	-2.096916884340755e-07
0.01	-0.006802318781839675	0.1313889170981743	0.9333330483332165	0.1938653872509414	-0.2283373900869113	-0.2399250188255433	-0.290686369186143	0.2316585463768983	0.2316585463769061	0.1328175225350322	0.1718676013626059	0.08947085046259208	0.0636891311260034	-0.01329012533217257	-0.01745841978854887	-0.007782546031691015	0.08832362623931765	-0.003001499974101741	0.02462456574044811	-0.06107841527374381	0.09552957311062821	0.09552957311063368	-0.01799592368652422	0.002203114028376092	0.02544001902435794	0.003320197288770129	0.09343461143006619	-0.05113755039611506	0.004052400036901708	-0.2282551028827632	0.1039889258531721	-0.08897495616253522	-0.01607920535934815	-29.89707115795272	-12.99110290143033	-35.71158034014211	0.1700976178497736	3.19398527571718	-612.342996991733	40.28812841943128	-1.292024646715515	-1.668398884585204	-0.7639868661992074	8.595906524342272	-0.292319648867503	2.463278410371032	-6.029471150958934	9.364219963127642	9.364219963130251	-1.76172949348845	0.1624471230339667	2.552106330909322	0.3440932974085708	4.808268875777107e-08	6.227320460121872e-09	-3.788971062252411e-07	1.756414966799317e-07	2.952458514528861e-08	2.24109918693485e-08	-2.578093227971968e-07
0.02	-0.007002755602876511	0.131133299618367	0.9332167451466213	0.1951773803083379	-0.2283829176840818	-0.2395575113513564	-0.2915916432793195	0.2330801326328434	0.2330801326328451	0.1325519052838436	0.1718994696072739	0.0898542410359327	0.0637388611185478	-0.02684060701619724	-0.03341472144007945	-0.01546097624569091	0.1735605387125347	-0.006124088628869169	0.04880219728317103	-0.1195403179251709	0.1883334430758119	0.188333443075836	-0.03495440955955242	0.004123122260649159	0.05130964594503628	0.006623089161814841	0.09640911364783872	-0.0690571430722433	0.003509735681262569	-0.2396186798206209	0.1193828854978949	-0.07943601458989917	-0.01683960754976631	-29.91183029908321	-7.466120632157036	-30.6755129074387	-0.5481719054333917	-2.809090840133512	-612.7956647189717	51.77329134155159	-1.468077394184475	-1.525198633137771	-0.7807611226851577	8.533596381585587	-0.3460828646622161	2.349079351960938	-5.610454124626533	9.249006220572134	9.249006220571847	-1.615958665606553	0.2652635134191576	2.635195019568847	0.3035462378826211	5.952331677565824e-08	-1.789172162106969e-08	-4.72778829803521e-07	1.877503194830968e-07	6.033068672291125e-08	-1.333739450456017e-07	-3.05926957160318e-07
0.03	-0.007339128452474939	0.1307237248840019	0.9330239810145522	0.1973278943636783	-0.2284602999122061	-0.2389513783607114	-0.2930686074914509	0.2354165098036133	0.2354165098036194	0.1321219885621168	0.1719500947198789	0.09049620783061921	0.06382085962982516	-0.04035515601986698	-0.04843951848627805	-0.02308761118437512	0.2561447236926813	-0.009354631361533538	0.07233223006646355	-0.1754697210198224	0.2785077050564843	0.2785077050564593	-0.05087885410562695	0.005964514002621675	0.07693326639783807	0.009731589119069227	0.09067740282005501	-0.06809863226845286	0.004118694529075933	-0.2332739576671734	0.1102416533632696	-0.07615494390112192	-0.01216542685270502	-29.93558043394951	-10.23734754186173	-29.60830950442762	-0.8638995059814005	-1.378531625456476	-613.2901308109807	53.01282502254448	-1.281319430351773	-1.482002007933286	-0.7530061361072403	8.061197312353633	-0.3119098496840767	2.341185239275134	-5.526762879586747	8.836481332663277	8.836481332656181	-1.558231630858774	0.1380105031099706	2.50338570594947	0.3076967298341423	6.805758498108364e-08	-2.889146417316938e-08	-5.417716920817991e-07	1.923228874583336e-07	7.50323874360937e-08	-2.212602184978581e-07	-3.342177412240202e-07
0.04	-0.007808281947491445	0.1301657258256601	0.9327550722417667	0.2002923238200423	-0.2285700615420807	-0.2381127010426791	-0.2950933816300695	0.2386415986233614	0.2386415986233659	0.1315373185385605	0.1720180204496076	0.09138989885939745	0.06393258211171246	-0.05339673609926506	-0.0630995862354114	-0.03068990438896442	0.3363436189178043	-0.0125999689788145	0.09531106276022672	-0.2291023032225562	0.3660757728710948	0.3660757728710258	-0.06590506992173274	0.007583245685539666	0.1016544927631836	0.01256788328381353	0.08494569199225925	-0.06714012146467453	0.004727653376878835	-0.2269292355137358	0.1011004212286365	-0.07287387321236134	-0.007491246155644891	-29.96717113723679	-12.93948882986084	-28.54364547331155	-1.162503494278954	0.05260488086622131	-612.7019696015474	54.04861307827159	-1.37348360933007	-1.452252773724784	-0.7758927758661706	8.05653843058086	-0.349041841585544	2.238839334055069	-5.151089946242934	8.727767387359766	8.727767387360482	-1.436312919612789	0.2207315016082574	2.454716202077528	0.2491050793805725	7.65319282419222e-08	-3.962070570405069e-08	-6.102513819621389e-07	1.967400687360873e-07	8.940203864691657e-08	-3.077465195075847e-07	-3.62099724250621e-07
0.05	-0.008406115307729388	0.1294632659381331	0.9324100191025365	0.204047298175188	-0.2287124357506016	-0.237047297759116	-0.2976427009486936	0.242729685124475	0.2427296851244874	0.1308071182663785	0.172101349195378	0.09252672740984441	0.06407133364182925	-0.06611108371762764	-0.07729849366301211	-0.03833303690274775	0.4142397094616516	-0.01587113392244759	0.1176618070448169	-0.2803945997890918	0.451109894539715	0.4511098945396204	-0.07998419550480973	0.009048403581682806	0.1255998591908843	0.01515639474216625	0.0804335451775285	-0.06200056828175795	0.005097026601880268	-0.2242618691195067	0.09838057107000329	-0.07418249998512248	-0.003620700420729978	-30.00534224850677	-13.83794305778111	-29.31188523689833	-0.9913772012666925	0.08541798964254439	-612.3787029345904	51.45442395662059	-1.211576135947895	-1.389607089875408	-0.7604327541602098	7.594412978598666	-0.3156344269178876	2.217075540650026	-5.063255404782082	8.326474259924781	8.326474259920541	-1.371170538873589	0.1043381872958703	2.347752078958859	0.2597482543113652	7.333343184139193e-08	-5.152321856596617e-08	-6.007810493587765e-07	1.488459978404291e-07	9.592808207726105e-08	-3.827917344148652e-07	-3.241720674677605e-07
0.06	-0.009129325303725139	0.1286216375038104	0.9319881527851633	0.2085688871582305	-0.2288874177297921	-0.2357616103197078	-0.3006939344115682	0.2476551607829404	0.2476551607829537	0.1299406351061181	0.1721983155708385	0.09389967066773733	0.06423517510157928	-0.07847206325032006	-0.09093329559455969	-0.04605254001758276	0.4896665444979768	-0.01912152311270683	0.1393678939289704	-0.3294851320725474	0.5335536043407991	0.5335536043406773	-0.09316164753662216	0.0103107716249659	0.1488774342522846	0.01758586921046747	0.07592139836277639	-0.05686101509884604	0.005466399826851511	-0.2215945027252879	0.09566072091136468	-0.07549112675789042	0.0002498453141728004	-30.04848639275559	-14.67413699947679	-30.08546339508776	-0.8008490752281116	0.1128728917641993	-611.0811406027725	48.67468596852159	-1.302809992195968	-1.339431674514213	-0.7911668960765006	7.562687329076415	-0.3448866909107836	2.109907853967737	-4.710737089626918	8.209685013852543	8.209685013852955	-1.255978209359858	0.1801735310362497	2.321157928817385	0.2172976813702412	6.964344745511982e-08	-6.347513232603045e-08	-5.880286105455741e-07	9.874934790589046e-08	1.021238683379012e-07	-4.573552193809902e-07	-2.834734784823964e-07
0.07000000000000001	-0.009974934006113226	0.1276465798840606	0.9314885093785976	0.2138330007843633	-0.2290950460267096	-0.2342623078746586	-0.3042244666159966	0.2533924156386895	0.2533924156387204	0.1289474691204783	0.1723072833229194	0.09550214049796314	0.06442223942798515	-0.09060038150974313	-0.103972908833232	-0.05389984008010581	0.5627427342240628	-0.02239186426107518	0.160382553543201	-0.376243728803875	0.6134602449446587	0.6134602449445846	-0.1053252137781356	0.01144064752714529	0.1715146650268069	0.01981416635946752	0.07134988411614385	-0.05867105898314338	0.005920789185661074	-0.2199721787534101	0.09255580343468456	-0.07123185381459554	0.004198774877181621	-30.09493531252893	-15.34880125082153	-28.32682128437759	-1.112029877701705	-0.2153501761160989	-610.1937007185134	51.32426188859367	-1.160440424494354	-1.270407720507193	-0.7851587538558918	7.11806683743113	-0.3163182333108776	2.08077381806093	-4.601783963400827	7.8155714200364	7.815571420043304	-1.174676980093861	0.07310186813847873	2.21973363582565	0.223591949117076	6.256148178137572e-08	-7.13899188990513e-08	-5.321127530353933e-07	5.630388644367685e-08	1.033475705081787e-07	-5.102482116713344e-07	-2.334589861359039e-07
0.08	-0.01094034542743358	0.1265442898175312	0.9309096635329034	0.2198154727163661	-0.2293350198164129	-0.2325561530728848	-0.3082112573874419	0.2599156204677548	0.2599156204678031	0.127837041242717	0.1724262912836853	0.09732792823274534	0.06463118596937145	-0.1024326070363121	-0.1163797849504817	-0.06189302784326633	0.6333382056724032	-0.02559062166988535	0.1807383652738425	-0.4207368454758001	0.6907435990038672	0.690743599003839	-0.1166140259615197	0.01231881336251101	0.1935410151635682	0.02196231220655433	0.06677836986950746	-0.06048110286743899	0.006375178544464529	-0.2183498547815334	0.08945088595800507	-0.06697258087129834	0.008147704440187154	-30.14272111588591	-15.96807609420091	-26.56684931691612	-1.41386311601951	-0.5617329512221886	-608.453939770775	53.83303985885951	-1.243591445625077	-1.212884250229732	-0.8203444362039912	7.06654367352729	-0.3305699429991573	1.978138277249951	-4.25764107774638	7.685027704922341	7.685027704922362	-1.081027397733978	0.1298315176735125	2.198981801265108	0.2012674209875597	5.526067860521407e-08	-7.90442456535532e-08	-4.73412158835085e-07	1.435205004419395e-08	1.042504930597232e-07	-5.617431076600152e-07	-1.82843467766113e-07
0.09	-0.01202296784575939	0.1253209935137657	0.930250008309775	0.2264922225375046	-0.2296067412959956	-0.230650191932334	-0.3126312761301658	0.2671989476654962	0.267198947665504	0.126618307967375	0.1725534371479871	0.09937087313267642	0.06486105796434821	-0.1140361364960879	-0.1281823719053156	-0.07006875332717562	0.701605228360814	-0.02873292244149575	0.2003379217953313	-0.4628969527772713	0.7654834689244899	0.7654834689245751	-0.1269960649689073	0.01306874751960317	0.2149343013026976	0.02400634085024257	0.06149830385749289	-0.05884375462709918	0.006880549731527215	-0.2161932283145572	0.08580022409858851	-0.06482648092991163	0.01257177681459133	-30.18986019429792	-16.91210923401295	-25.81461272686631	-1.517203659253088	-0.5532685547837475	-607.1636680590742	54.10750206506746	-1.110363102876784	-1.149359468984063	-0.8209102670542489	6.645800982810595	-0.3029943123057136	1.933490946695493	-4.139703012502779	7.302699958495432	7.30269995851241	-0.9963775180877315	0.04134220045418106	2.092457555890085	0.2050381627345261	4.458674719275517e-08	-8.806288524638449e-08	-4.089979725813202e-07	-5.484318022583856e-08	1.035448897434012e-07	-5.996652913115864e-07	-1.118761748306164e-07
